<svg width="60" height="60" viewBox="0 0 60 60" fill="none" xmlns="http://www.w3.org/2000/svg">
<path d="M0 30C0 13.4315 13.4315 0 30 0H45C53.2843 0 60 6.71573 60 15V30C60 46.5685 46.5685 60 30 60C13.4315 60 0 46.5685 0 30Z" fill="url(#paint0_linear)"/>
<path d="M36.3828 17.0234C36.7415 17.0234 37.0879 17.0853 37.4219 17.209C37.7559 17.3327 38.0465 17.4997 38.2939 17.71C38.5537 17.9202 38.7578 18.1738 38.9062 18.4707C39.0547 18.7552 39.1289 19.0645 39.1289 19.3984C39.1289 19.5592 39.1165 19.7139 39.0918 19.8623C39.0794 19.9984 39.0609 20.1221 39.0361 20.2334C38.999 20.3695 38.9681 20.487 38.9434 20.5859C38.1022 23.8887 37.224 27.2594 36.3086 30.6982C35.3932 34.1247 34.515 37.4831 33.6738 40.7734C33.4883 41.194 33.2409 41.5651 32.9316 41.8867C32.6719 42.1712 32.3317 42.431 31.9111 42.666C31.5029 42.8887 30.9896 43 30.3711 43H29.7773C29.1589 43 28.6393 42.8887 28.2188 42.666C27.7982 42.431 27.458 42.1712 27.1982 41.8867C26.889 41.5651 26.6478 41.194 26.4746 40.7734L21.2051 20.5859C21.168 20.487 21.137 20.3695 21.1123 20.2334C21.0505 19.986 21.0195 19.7077 21.0195 19.3984C21.0195 19.0645 21.0876 18.7552 21.2236 18.4707C21.3721 18.1738 21.57 17.9202 21.8174 17.71C22.0648 17.4997 22.3555 17.3327 22.6895 17.209C23.0234 17.0853 23.3822 17.0234 23.7656 17.0234C24.3594 17.0234 24.8356 17.1533 25.1943 17.4131C25.5654 17.6729 25.8561 17.9635 26.0664 18.2852C26.3014 18.6562 26.4746 19.0768 26.5859 19.5469C26.7344 20.1406 26.8952 20.8148 27.0684 21.5693C27.2415 22.3115 27.4147 23.0846 27.5879 23.8887C27.7611 24.6927 27.9342 25.5153 28.1074 26.3564C28.293 27.1852 28.4661 27.9893 28.627 28.7686C29.0104 30.5993 29.3939 32.4733 29.7773 34.3906H30.3711C30.7917 32.4733 31.1999 30.5993 31.5957 28.7686C31.7565 27.9893 31.9235 27.1852 32.0967 26.3564C32.2822 25.5153 32.4616 24.6927 32.6348 23.8887C32.8079 23.0846 32.9749 22.3115 33.1357 21.5693C33.2965 20.8148 33.4388 20.1406 33.5625 19.5469C33.6862 19.0768 33.8656 18.6562 34.1006 18.2852C34.3109 17.9635 34.5954 17.6729 34.9541 17.4131C35.3128 17.1533 35.7891 17.0234 36.3828 17.0234Z" fill="white"/>
<defs>
<linearGradient id="paint0_linear" x1="52.3358" y1="60" x2="1.53108" y2="56.4511" gradientUnits="userSpaceOnUse">
<stop stop-color="#0045FF"/>
<stop offset="1" stop-color="#0081FF"/>
</linearGradient>
</defs>
</svg>
